<svg width="39" height="39" viewBox="0 0 39 39" fill="none" xmlns="http://www.w3.org/2000/svg">
<g id="24-hours 1" clipPath="url(#clip0_4_101)">
<path id="Vector" fill-rule="evenodd" clip-rule="evenodd" d="M31.9353 30.2141L26.7307 27.2095C25.7193 26.6256 24.4144 26.9734 23.8308 27.9857L23.6255 28.342C23.1054 29.2441 22.3054 29.819 21.2855 30.0279C20.2698 30.236 19.301 30.0181 18.4716 29.396C16.7693 28.1189 15.1612 26.7088 13.6566 25.2042C12.1524 23.7 10.7423 22.0921 9.46556 20.3899C8.84332 19.5604 8.62478 18.5915 8.83288 17.5754C9.04174 16.5557 9.61791 15.7569 10.5194 15.2365L10.8754 15.0312C11.369 14.7463 11.7146 14.2906 11.8622 13.7405C12.0092 13.1929 11.9362 12.6226 11.6526 12.1315L8.64763 6.92686C8.11405 6.00267 7.01298 5.6359 6.02237 6.01608L5.9577 6.04091C4.93669 6.43259 2.12267 7.46045 1.36644 8.21668C-0.869894 10.4531 0.0869772 14.4989 1.08468 17.0734C2.83198 21.5823 6.14645 25.9222 9.54311 29.3184C12.9393 32.7142 17.2789 36.0296 21.7874 37.7769C23.3516 38.383 25.1119 38.8615 26.8005 38.8615C28.2138 38.8615 29.6206 38.5194 30.6448 37.4951C31.3657 36.7742 32.435 33.8721 32.8268 32.8865L32.852 32.8231C33.2431 31.8393 32.8493 30.7417 31.9353 30.2141ZM30.3322 9.7974C30.8242 9.97374 31.1524 10.4406 31.1524 10.9631V16.8893H31.3831C32.0664 16.8893 32.6214 17.4442 32.6214 18.1276C32.6214 18.8117 32.0672 19.3658 31.3831 19.3658H31.1524V20.7366C31.1524 21.4207 30.5975 21.9745 29.9141 21.9745C29.2304 21.9745 28.6763 21.4207 28.6763 20.7366V19.3658H24.0178C23.5389 19.3658 23.1026 19.0895 22.8982 18.6569C22.6937 18.2235 22.7572 17.7114 23.0613 17.3415L28.9577 10.1759C29.2895 9.77265 29.84 9.62114 30.3322 9.7974ZM28.6763 16.8894H26.6407L28.6763 14.4162V16.8894ZM20.284 14.4446C20.5115 13.6112 20.3779 12.9905 19.8847 12.6003C19.3112 12.1469 18.3562 12.0666 17.71 12.4185C17.2449 12.6718 17.0482 13.0989 17.1077 13.725C17.1737 14.4058 16.6751 15.0111 15.9943 15.076C15.313 15.1421 14.7089 14.6427 14.6432 13.9626C14.4866 12.3356 15.1725 10.9797 16.525 10.2431C18.0498 9.41372 20.0635 9.58382 21.4215 10.6589C22.7087 11.677 23.165 13.2953 22.6729 15.0968C22.3378 16.3245 21.1784 17.2284 19.9521 18.1863C19.4287 18.5944 18.8723 19.0285 18.3678 19.4983H21.9658C22.6496 19.4983 23.2038 20.0532 23.2038 20.7366C23.2038 21.4207 22.6496 21.9745 21.9658 21.9745H15.8472C15.4208 21.9745 15.024 21.7554 14.7977 21.394C14.571 21.033 14.5472 20.58 14.7331 20.1963C15.5756 18.4605 17.1574 17.2258 18.4282 16.234C19.202 15.6296 20.1653 14.8779 20.284 14.4446ZM39 16.2651C39 20.5724 37.3222 24.6215 34.2766 27.6676C34.0345 27.9089 33.718 28.0304 33.4008 28.0304C33.0843 28.0304 32.7668 27.9089 32.5255 27.6676C32.0418 27.1839 32.0418 26.3997 32.5255 25.9161C35.1031 23.3384 36.5235 19.9105 36.5235 16.2651C36.5235 8.738 30.4004 2.61493 22.8733 2.61493C19.2275 2.61493 15.8 4.035 13.2221 6.61266C12.7384 7.09635 11.9546 7.09635 11.4709 6.61266C10.9872 6.12896 10.9872 5.34516 11.4709 4.86146C14.5169 1.81619 18.566 0.138428 22.8733 0.138428C31.7653 0.138504 39 7.37278 39 16.2651Z" fill="#FF35A2"/>
</g>
<defs>
<clipPath id="clip0_4_101">
<rect width="39" height="39" fill="white"/>
</clipPath>
</defs>
</svg>
