<svg width="48" height="48" viewBox="0 0 48 48" fill="none" xmlns="http://www.w3.org/2000/svg">
<g id="first-aid-kit 1">
<g id="Group">
<g id="Group_2">
<path id="Vector" d="M27.3878 25.9182C26.8423 25.9182 26.4001 25.476 26.4001 24.9306V20.417H21.6001V24.9306C21.6001 25.476 21.1579 25.9182 20.6125 25.9182H16.0989V30.7084H20.6125C21.1579 30.7084 21.6001 31.1506 21.6001 31.696V36.2096H26.3902V31.696C26.3902 31.1506 26.8325 30.7084 27.3779 30.7084H31.9013V25.9182H27.3878Z" fill="#1464FF"/>
</g>
</g>
<g id="Group_3">
<g id="Group_4">
<path id="Vector_2" d="M41.1852 11.0444H6.81482C3.67407 11.0444 0 12.8321 0 17.8592V39.321C0 44.3481 3.67407 46.1358 6.81482 46.1358H41.1852C44.3259 46.1358 48 44.3481 48 39.321V17.8592C48 12.8321 44.3358 11.0444 41.1852 11.0444ZM33.8765 31.2123C33.8765 32.0251 33.2177 32.6839 32.4049 32.6839H28.3753V36.7136C28.3753 37.5263 27.7164 38.1852 26.9037 38.1852H21.0963C20.2836 38.1852 19.6247 37.5263 19.6247 36.7136V32.6839H15.6049C14.7922 32.6894 14.1289 32.0349 14.1235 31.2222C14.1235 31.2189 14.1235 31.2155 14.1235 31.2123V25.4148C14.1235 24.6021 14.7823 23.9432 15.5951 23.9432H19.6247V19.9136C19.6247 19.1009 20.2836 18.442 21.0963 18.442H26.8938C27.7065 18.442 28.3654 19.1009 28.3654 19.9136V23.9432H32.3951C33.2078 23.9378 33.8711 24.5922 33.8765 25.4049C33.8765 25.4083 33.8765 25.4115 33.8765 25.4148V31.2123Z" fill="#1464FF"/>
</g>
</g>
<g id="Group_5">
<g id="Group_6">
<path id="Vector_3" d="M30.3499 1.86894C30.2416 1.86277 30.133 1.86277 30.0246 1.86894H17.9752C16.3904 1.77919 15.0329 2.99104 14.9431 4.57573C14.9369 4.68412 14.9369 4.79264 14.9431 4.90104V9.34548H16.9184L16.9283 4.90104C16.9283 4.61462 16.9283 3.84425 17.9851 3.84425H30.0246C31.0814 3.84425 31.0814 4.60474 31.0814 4.90104V9.34548H33.0567V4.90104C33.1466 3.31622 31.9346 1.95881 30.3499 1.86894Z" fill="#1464FF"/>
</g>
</g>
</g>
</svg>
