<svg width="32" height="32" viewBox="0 0 32 32" fill="none" xmlns="http://www.w3.org/2000/svg">
<g id="cardiogram 1">
<g id="Group">
<path id="Vector" d="M15.9909 4.218C9.01587 -1.88266 0.14723 3.47755 0.00180337 10.7442C-0.0352563 12.5961 0.499328 14.4 1.56343 16.0631H8.46066L9.68744 14.0184C10.0437 13.4247 10.9057 13.4056 11.2821 13.9974L13.8705 18.0648L17.6435 10.0997C17.9726 9.40473 18.9532 9.38267 19.3161 10.0566L22.5503 16.0631H30.4184C36.2468 6.95379 24.7279 -3.42361 15.9909 4.218Z" fill="#FF3A46"/>
<path id="Vector_2" d="M21.1651 17.4448L18.5443 12.5776L14.8382 20.4014C14.5229 21.0671 13.5956 21.1249 13.2002 20.5034L10.5148 16.2835L9.79525 17.4827C9.62582 17.7651 9.32072 17.9378 8.99143 17.9378H3.04639C3.23275 18.1328 2.23951 17.1416 15.3297 30.164C15.6953 30.5278 16.2863 30.5278 16.652 30.164C29.5407 17.342 28.7493 18.1325 28.9353 17.9378H21.9904C21.6455 17.9379 21.3286 17.7485 21.1651 17.4448Z" fill="#FF3A46"/>
</g>
</g>
</svg>
