<svg width="27" height="27" viewBox="0 0 27 27" fill="none" xmlns="http://www.w3.org/2000/svg">
<g id="mail 1">
<g id="Group">
<g id="Group_2">
<path id="Vector" d="M26.7623 5.36426L18.5737 13.5001L26.7623 21.6359C26.9103 21.3265 27.0001 20.9844 27.0001 20.6192V6.38092C27.0001 6.01563 26.9103 5.67365 26.7623 5.36426Z" fill="white"/>
</g>
</g>
<g id="Group_3">
<g id="Group_4">
<path id="Vector_2" d="M24.627 4.00781H2.37311C2.00782 4.00781 1.66584 4.09762 1.35645 4.24564L11.8223 14.6587C12.7477 15.5841 14.2525 15.5841 15.1779 14.6587L25.6437 4.24564C25.3343 4.09762 24.9923 4.00781 24.627 4.00781Z" fill="white"/>
</g>
</g>
<g id="Group_5">
<g id="Group_6">
<path id="Vector_3" d="M0.237832 5.36426C0.0898067 5.67365 0 6.01563 0 6.38092V20.6192C0 20.9845 0.0898067 21.3265 0.237832 21.6359L8.42637 13.5001L0.237832 5.36426Z" fill="white"/>
</g>
</g>
<g id="Group_7">
<g id="Group_8">
<path id="Vector_4" d="M17.4551 14.6187L16.2964 15.7774C14.7545 17.3193 12.2456 17.3193 10.7037 15.7774L9.54499 14.6187L1.35645 22.7545C1.66584 22.9025 2.00782 22.9923 2.37311 22.9923H24.627C24.9923 22.9923 25.3343 22.9025 25.6437 22.7545L17.4551 14.6187Z" fill="white"/>
</g>
</g>
</g>
</svg>
