<svg width="60" height="60" viewBox="0 0 60 60" fill="none" xmlns="http://www.w3.org/2000/svg">
<g id="healthcare 1">
<g id="Layer_x0020_1">
<path id="Vector" fill-rule="evenodd" clip-rule="evenodd" d="M34.1016 54.8438H25.8984C24.7266 54.8438 24.7266 53.0859 25.8984 53.0859H34.1016C35.2734 53.0859 35.2734 54.8438 34.1016 54.8438ZM30 44.0625C29.7656 44.0625 29.6484 44.0625 29.5312 43.9453C13.3594 32.3438 15.7031 18.9844 15.8203 18.3984C15.9375 17.9297 16.2891 17.6953 16.6406 17.6953C23.3203 17.9297 29.4141 12.7734 29.4141 12.7734C29.7656 12.4219 30.2344 12.4219 30.5859 12.7734C30.5859 12.7734 36.6797 18.0469 43.2422 17.6953C43.7109 17.6953 44.0625 18.0469 44.1797 18.3984C44.2969 18.9844 46.6406 32.3438 30.4688 43.9453C30.3516 44.0625 30.2344 44.0625 30 44.0625ZM17.4609 19.4531C17.1094 22.2656 17.1094 32.6953 30 42.1875C42.7734 32.8125 42.8906 22.2656 42.5391 19.4531C36.7969 19.3359 31.6406 15.7031 30 14.4141C28.3594 15.7031 23.2031 19.3359 17.4609 19.4531ZM31.7578 34.9219H28.2422C27.7734 34.9219 27.4219 34.4531 27.4219 33.9844V29.8828H23.2031C22.7344 29.8828 22.3828 29.5312 22.3828 29.0625V25.4297C22.3828 24.9609 22.7344 24.6094 23.2031 24.6094H27.4219V20.5078C27.4219 20.0391 27.7734 19.5703 28.2422 19.5703H31.7578C32.2266 19.5703 32.5781 20.0391 32.5781 20.5078V24.6094H36.7969C37.2656 24.6094 37.6172 24.9609 37.6172 25.4297V29.0625C37.6172 29.5312 37.2656 29.8828 36.7969 29.8828H32.5781V33.9844C32.5781 34.4531 32.2266 34.9219 31.7578 34.9219ZM30.9375 33.1641V29.0625C30.9375 28.5938 31.2891 28.2422 31.7578 28.2422H35.9766V26.3672H31.7578C31.2891 26.3672 30.8203 26.0156 30.8203 25.5469V21.4453H29.0625V25.5469C29.0625 26.0156 28.7109 26.3672 28.2422 26.3672H24.0234V28.2422H28.2422C28.7109 28.2422 29.0625 28.5938 29.0625 29.1797V33.1641H30.9375ZM47.5781 60H12.4219C9.49219 60 7.26562 57.7734 7.26562 54.9609V5.03906C7.26562 2.22656 9.49219 0 12.4219 0H47.6953C50.5078 0 52.7344 2.22656 52.7344 5.03906V54.9609C52.7344 57.7734 50.5078 60 47.5781 60ZM12.4219 1.64062C10.5469 1.64062 8.90625 3.28125 8.90625 5.03906V54.9609C8.90625 56.7188 10.5469 58.3594 12.4219 58.3594H47.6953C49.5703 58.3594 51.0938 56.8359 51.0938 54.9609V5.03906C51.0938 3.16406 49.5703 1.64062 47.6953 1.64062H12.4219ZM47.5781 49.6875H12.4219C11.8359 49.6875 11.4844 49.3359 11.4844 48.75V7.73438C11.4844 7.26562 11.8359 6.91406 12.4219 6.91406H47.6953C48.1641 6.91406 48.5156 7.26562 48.5156 7.73438V48.75C48.5156 49.3359 48.1641 49.6875 47.5781 49.6875ZM13.2422 47.9297H46.7578V8.67188H13.2422V47.9297ZM32.3438 5.15625H25.6641C24.4922 5.15625 24.4922 3.39844 25.6641 3.39844H32.3438C33.5156 3.39844 33.5156 5.15625 32.3438 5.15625ZM25.1953 46.0547H15.4688C14.2969 46.0547 14.2969 44.2969 15.4688 44.2969H25.1953C26.3672 44.2969 26.3672 46.0547 25.1953 46.0547ZM21.3281 42.3047H15.4688C14.2969 42.3047 14.2969 40.5469 15.4688 40.5469H21.3281C22.5 40.5469 22.5 42.3047 21.3281 42.3047ZM44.5312 46.0547H34.8047C33.6328 46.0547 33.6328 44.2969 34.8047 44.2969H44.5312C45.7031 44.2969 45.7031 46.0547 44.5312 46.0547ZM44.5312 42.3047H38.6719C37.5 42.3047 37.5 40.5469 38.6719 40.5469H44.5312C45.7031 40.5469 45.7031 42.3047 44.5312 42.3047Z" fill="#52ABB3"/>
<path id="Vector_2" fill-rule="evenodd" clip-rule="evenodd" d="M16.6406 17.6953C23.3203 17.9297 29.4141 12.7734 29.4141 12.7734C29.7656 12.4219 30.2344 12.4219 30.5859 12.7734C30.5859 12.7734 36.6797 18.0469 43.2422 17.6953C43.7109 17.6953 44.0625 18.0469 44.1797 18.3984C44.2969 18.9844 46.6406 32.3438 30.4688 43.9453C30.3516 44.0625 30.2344 44.0625 30 44.0625C29.7656 44.0625 29.6484 44.0625 29.5312 43.9453C13.3594 32.3438 15.7031 18.9844 15.8203 18.3984C15.9375 17.9297 16.2891 17.6953 16.6406 17.6953ZM13.2422 47.9297H46.7578V8.67188H13.2422V47.9297ZM21.3281 40.5469C22.5 40.5469 22.5 42.3047 21.3281 42.3047H15.4688C14.2969 42.3047 14.2969 40.5469 15.4688 40.5469H21.3281ZM15.4688 44.2969H25.1953C26.3672 44.2969 26.3672 46.0547 25.1953 46.0547H15.4688C14.2969 46.0547 14.2969 44.2969 15.4688 44.2969ZM38.6719 42.3047C37.5 42.3047 37.5 40.5469 38.6719 40.5469H44.5312C45.7031 40.5469 45.7031 42.3047 44.5312 42.3047H38.6719ZM34.8047 44.2969H44.5312C45.7031 44.2969 45.7031 46.0547 44.5312 46.0547H34.8047C33.6328 46.0547 33.6328 44.2969 34.8047 44.2969Z" fill="#AADDE3"/>
<path id="Vector_3" fill-rule="evenodd" clip-rule="evenodd" d="M30.0001 14.4141C28.3594 15.7031 23.2032 19.3359 17.461 19.4531C17.1094 22.2656 17.1094 32.6953 30.0001 42.1875C42.7735 32.8125 42.8907 22.2656 42.5391 19.4531C36.7969 19.3359 31.6407 15.7031 30.0001 14.4141ZM31.7579 19.5703C32.2266 19.5703 32.5782 20.0391 32.5782 20.5078V24.6094H36.7969C37.2657 24.6094 37.6173 24.9609 37.6173 25.4297V29.0625C37.6173 29.5312 37.2657 29.8828 36.7969 29.8828H32.5782V33.9844C32.5782 34.4531 32.2266 34.9219 31.7579 34.9219H28.2423C27.7735 34.9219 27.4219 34.4531 27.4219 33.9844V29.8828H23.2032C22.7344 29.8828 22.3829 29.5312 22.3829 29.0625V25.4297C22.3829 24.9609 22.7344 24.6094 23.2032 24.6094H27.4219V20.5078C27.4219 20.0391 27.7735 19.5703 28.2423 19.5703H31.7579Z" fill="#FEFEFE"/>
<g id="Group">
<path id="Vector_4" fill-rule="evenodd" clip-rule="evenodd" d="M29.0625 25.5469C29.0625 26.0156 28.7109 26.3672 28.2422 26.3672H24.0234V28.2422H28.2422C28.7109 28.2422 29.0625 28.5938 29.0625 29.1797V33.1641H30.9375V29.0625C30.9375 28.5938 31.2891 28.2422 31.7578 28.2422H35.9766V26.3672H31.7578C31.2891 26.3672 30.8203 26.0156 30.8203 25.5469V21.4453H29.0625V25.5469Z" fill="#AADDE3"/>
<path id="Vector_5" fill-rule="evenodd" clip-rule="evenodd" d="M12.4219 6.91406H47.6953C48.1641 6.91406 48.5156 7.26562 48.5156 7.73438V48.75C48.5156 49.3359 48.1641 49.6875 47.5781 49.6875H12.4219C11.8359 49.6875 11.4844 49.3359 11.4844 48.75V7.73438C11.4844 7.26562 11.8359 6.91406 12.4219 6.91406ZM25.8984 53.0859H34.1016C35.2734 53.0859 35.2734 54.8438 34.1016 54.8438H25.8984C24.7266 54.8438 24.7266 53.0859 25.8984 53.0859ZM12.4219 58.3594H47.6953C49.5703 58.3594 51.0938 56.8359 51.0938 54.9609V5.03906C51.0938 3.16406 49.5703 1.64062 47.6953 1.64062H12.4219C10.5469 1.64062 8.90625 3.28125 8.90625 5.03906V54.9609C8.90625 56.7188 10.5469 58.3594 12.4219 58.3594ZM32.3438 3.39844C33.5156 3.39844 33.5156 5.15625 32.3438 5.15625H25.6641C24.4922 5.15625 24.4922 3.39844 25.6641 3.39844H32.3438Z" fill="#AADDE3"/>
</g>
</g>
</g>
</svg>
