<svg width="260" height="149" viewBox="0 0 260 149" fill="none" xmlns="http://www.w3.org/2000/svg">
<path d="M123.118 81.0073V82.1618H121.965V81.0073V77.8721V74.7246H123.118H134.588V75.8912H123.118V77.8721H133.277V79.0265H123.118V81.0073Z" fill="#0F3D3E"/>
<path d="M145.792 74.7251C146.071 74.7251 146.326 74.7737 146.569 74.8831C146.811 74.9924 147.018 75.1261 147.2 75.3084C147.382 75.4907 147.528 75.6973 147.637 75.9403C147.746 76.1834 147.795 76.4386 147.795 76.7059V80.1815C147.795 80.461 147.746 80.7162 147.637 80.9471C147.528 81.1901 147.382 81.3967 147.2 81.579C147.018 81.7613 146.811 81.8949 146.569 82.0043C146.326 82.1137 146.071 82.1623 145.792 82.1623H137.137C136.858 82.1623 136.603 82.1137 136.36 82.0043C136.118 81.8949 135.899 81.7613 135.717 81.579C135.535 81.3967 135.389 81.1901 135.292 80.9471C135.183 80.704 135.135 80.4488 135.135 80.1815V76.7059C135.135 76.4264 135.183 76.1712 135.292 75.9403C135.402 75.6973 135.535 75.4907 135.717 75.3084C135.899 75.1261 136.106 74.9924 136.36 74.8831C136.615 74.7737 136.858 74.7251 137.137 74.7251H145.792ZM137.137 75.8917C137.028 75.8917 136.919 75.916 136.81 75.9525C136.712 75.9889 136.615 76.0497 136.543 76.1226C136.47 76.1955 136.409 76.2806 136.36 76.39C136.312 76.4872 136.288 76.5965 136.288 76.7059V80.1815C136.288 80.2908 136.312 80.4002 136.36 80.4974C136.409 80.5946 136.47 80.6797 136.543 80.7648C136.615 80.8377 136.712 80.8985 136.81 80.9471C136.907 80.9957 137.016 81.02 137.137 81.02H145.792C145.901 81.02 146.01 80.9957 146.12 80.9471C146.217 80.8985 146.314 80.8377 146.387 80.7648C146.459 80.6919 146.52 80.6068 146.569 80.4974C146.617 80.4002 146.642 80.2908 146.642 80.1815V76.7059C146.642 76.5965 146.617 76.4872 146.569 76.39C146.52 76.2927 146.459 76.2077 146.387 76.1226C146.314 76.0497 146.217 75.9889 146.12 75.9525C146.022 75.9039 145.913 75.8917 145.792 75.8917H137.137Z" fill="#0F3D3E"/>
<path d="M161.159 80.1815C161.159 80.5825 161.05 80.9471 160.843 81.263C160.637 81.579 160.358 81.8099 160.006 81.9679C159.751 82.1015 159.472 82.1623 159.18 82.1623H150.514C150.222 82.1623 149.955 82.1015 149.688 81.9679C149.518 81.8828 149.361 81.7856 149.227 81.664C149.081 81.5425 148.96 81.4088 148.863 81.2509C148.766 81.0929 148.681 80.9228 148.62 80.7526C148.559 80.5703 148.535 80.3759 148.535 80.1815V76.7059V74.7251H149.688V74.9195V76.7059V80.1815C149.688 80.2908 149.713 80.4002 149.761 80.4974C149.81 80.5946 149.87 80.6797 149.943 80.7648C150.016 80.8377 150.101 80.8985 150.21 80.9471C150.307 80.9957 150.417 81.02 150.526 81.02H159.192C159.302 81.02 159.411 80.9957 159.508 80.9471C159.605 80.8985 159.69 80.8377 159.775 80.7648C159.848 80.6919 159.909 80.6068 159.945 80.4974C159.981 80.4002 160.006 80.2908 160.006 80.1815V76.7059V74.9195V74.7251H161.159V76.7059V80.1815Z" fill="#0F3D3E"/>
<path d="M161.899 82.1257V75.9766V74.6885L163.064 75.2596L168.211 77.7873L173.394 80.315V74.7249H174.547V80.8861V82.1621L173.394 81.591L168.211 79.0633L163.064 76.5356V82.1135H161.899V82.1257Z" fill="#0F3D3E"/>
<path d="M187.924 78.4437C187.924 78.5531 187.924 78.6503 187.911 78.7475C187.899 78.8447 187.887 78.9419 187.887 79.0392C187.826 79.4159 187.705 79.7804 187.535 80.1086C187.365 80.4488 187.147 80.7526 186.892 81.02L186.77 81.1415C186.431 81.4575 186.042 81.7005 185.605 81.8949C185.168 82.0772 184.695 82.1744 184.197 82.1744H175.3V81.02V79.0392V78.4437V77.8725V75.8917V74.7251H184.197C184.695 74.7251 185.168 74.8223 185.605 75.0046C186.042 75.1869 186.431 75.4421 186.77 75.758C186.819 75.7945 186.855 75.8431 186.892 75.8796C187.147 76.1469 187.353 76.4386 187.535 76.7788C187.705 77.1191 187.826 77.4715 187.887 77.8604C187.899 77.9576 187.911 78.0427 187.911 78.1399C187.924 78.2371 187.924 78.3343 187.924 78.4437ZM176.453 79.027V81.0078H184.197C184.501 81.0078 184.792 80.9592 185.059 80.862C185.326 80.7648 185.581 80.619 185.799 80.4488C186.018 80.2665 186.212 80.0599 186.358 79.8169C186.516 79.5739 186.625 79.3065 186.698 79.027C186.722 78.9298 186.734 78.8326 186.746 78.7353C186.758 78.6381 186.758 78.5409 186.758 78.4315C186.758 78.3343 186.758 78.2371 186.746 78.1399C186.734 78.0427 186.722 77.9576 186.698 77.8604C186.625 77.5809 186.516 77.3135 186.358 77.0705C186.2 76.8274 186.018 76.6209 185.799 76.4386C185.581 76.2684 185.326 76.1226 185.059 76.0254C184.78 75.9282 184.501 75.8796 184.197 75.8796H176.453V77.8604V78.4315V79.027Z" fill="#0F3D3E"/>
<path d="M197.476 80.789H189.987L189.805 81.0078L188.797 82.1622H187.414H187.268L187.414 81.9678L188.251 81.0078L189.999 79.0269L190.485 78.4315L190.994 77.8603L192.718 75.8795L192.973 75.6L193.726 74.7129L194.515 75.6L194.745 75.8795L196.469 77.8603L196.966 78.4315L197.476 79.0269L199.2 81.0078L200.037 81.9678L200.207 82.1622H200.037H198.678L197.67 81.0078L197.476 80.789ZM196.493 79.6346L195.947 79.0269L195.449 78.4315L194.939 77.8603L193.738 76.4871L192.548 77.8603L192.038 78.4315L191.529 79.0269L191.007 79.6346H196.493Z" fill="#0F3D3E"/>
<path d="M203.363 77.8725V78.4437V79.0392V81.02V82.1744H202.21V81.02V79.0392V78.4437V77.8725V75.8917H196.481V74.7251H202.21H203.363H209.105V75.8917H203.363V77.8725Z" fill="#0F3D3E"/>
<path d="M211.022 82.1623H209.857V75.8917V74.7251H211.022V75.8917V77.8725V79.027V81.0078V82.1623Z" fill="#0F3D3E"/>
<path d="M222.42 74.7251C222.699 74.7251 222.954 74.7737 223.197 74.8831C223.44 74.9924 223.646 75.1261 223.828 75.3084C224.01 75.4907 224.156 75.6973 224.265 75.9403C224.375 76.1834 224.423 76.4386 224.423 76.7059V80.1815C224.423 80.461 224.375 80.7162 224.265 80.9471C224.156 81.1901 224.01 81.3967 223.828 81.579C223.646 81.7613 223.44 81.8949 223.197 82.0043C222.954 82.1137 222.699 82.1623 222.42 82.1623H213.766C213.487 82.1623 213.232 82.1137 212.989 82.0043C212.746 81.8949 212.528 81.7613 212.346 81.579C212.164 81.3967 212.018 81.1901 211.921 80.9471C211.811 80.704 211.763 80.4488 211.763 80.1815V76.7059C211.763 76.4264 211.811 76.1712 211.921 75.9403C212.03 75.6973 212.164 75.4907 212.346 75.3084C212.528 75.1261 212.734 74.9924 212.989 74.8831C213.244 74.7737 213.487 74.7251 213.766 74.7251H222.42ZM213.766 75.8917C213.656 75.8917 213.547 75.916 213.438 75.9525C213.341 75.9889 213.244 76.0497 213.171 76.1226C213.098 76.1955 213.037 76.2806 212.989 76.39C212.94 76.4872 212.916 76.5965 212.916 76.7059V80.1815C212.916 80.2908 212.94 80.4002 212.989 80.4974C213.037 80.5946 213.098 80.6797 213.171 80.7648C213.244 80.8377 213.341 80.8985 213.438 80.9471C213.535 80.9957 213.644 81.02 213.766 81.02H222.42C222.53 81.02 222.639 80.9957 222.748 80.9471C222.845 80.8985 222.942 80.8377 223.015 80.7648C223.088 80.6919 223.149 80.6068 223.197 80.4974C223.246 80.4002 223.27 80.2908 223.27 80.1815V76.7059C223.27 76.5965 223.246 76.4872 223.197 76.39C223.149 76.2927 223.088 76.2077 223.015 76.1226C222.942 76.0497 222.845 75.9889 222.748 75.9525C222.651 75.9039 222.542 75.8917 222.42 75.8917H213.766Z" fill="#0F3D3E"/>
<path d="M225.212 82.1257V75.9766V74.6885L226.377 75.2596L231.524 77.7873L236.707 80.315V74.7249H237.86V80.8861V82.1621L236.707 81.591L231.524 79.0633L226.377 76.5356V82.1135H225.212V82.1257Z" fill="#0F3D3E"/>
<path d="M144.299 56.4842C144.299 56.6665 144.287 56.8488 144.274 57.0189C144.262 57.189 144.238 57.3592 144.226 57.5415C144.105 58.222 143.898 58.8661 143.595 59.4615C143.291 60.0691 142.903 60.6038 142.454 61.0899L142.223 61.3208C141.616 61.8798 140.924 62.3294 140.135 62.6697C139.346 63.01 138.509 63.168 137.623 63.168H121.685V61.0899V57.5415V56.4842V55.4634V51.9149V49.8369H137.623C138.509 49.8369 139.346 50.007 140.135 50.3352C140.924 50.6754 141.616 51.1251 142.223 51.6962C142.308 51.7691 142.381 51.842 142.454 51.9271C142.903 52.401 143.291 52.9357 143.595 53.5434C143.898 54.151 144.117 54.795 144.226 55.4756C144.238 55.6457 144.262 55.8158 144.274 55.9738C144.287 56.1318 144.299 56.3019 144.299 56.4842ZM123.749 57.5415V61.0899H137.611C138.157 61.0899 138.667 61.0049 139.164 60.8226C139.65 60.6403 140.099 60.3972 140.499 60.0813C140.9 59.7653 141.228 59.3886 141.507 58.9511C141.786 58.5136 141.98 58.0519 142.114 57.5415C142.162 57.3592 142.187 57.189 142.199 57.0189C142.211 56.8488 142.223 56.6665 142.223 56.4842C142.223 56.3019 142.211 56.1318 142.199 55.9738C142.187 55.8037 142.15 55.6457 142.114 55.4756C141.992 54.9652 141.786 54.4912 141.507 54.0538C141.228 53.6163 140.888 53.2396 140.499 52.9236C140.099 52.6076 139.662 52.3646 139.164 52.1823C138.679 52 138.157 51.9149 137.611 51.9149H123.749V55.4634V56.4842V57.5415Z" fill="#0F3D3E"/>
<path d="M147.697 57.5419V61.0904V63.1684H145.622V56.4847V55.4639V49.8374H147.697H164.4C165.152 49.8374 165.844 50.0318 166.451 50.4086C167.058 50.7853 167.519 51.2957 167.847 51.9276C168.126 52.4623 168.26 53.0578 168.26 53.6897C168.26 54.3216 168.126 54.9171 167.847 55.4761C167.725 55.6583 167.604 55.8406 167.483 56.0229C167.349 56.2052 167.216 56.3632 167.058 56.4968C167.204 56.6427 167.349 56.8128 167.483 56.9951C167.616 57.1774 167.738 57.3597 167.847 57.5541C168.126 58.0888 168.26 58.6843 168.26 59.3162V61.0904V63.1684H166.184V61.0904V59.3162C166.184 59.0731 166.135 58.8422 166.038 58.6356C165.941 58.4169 165.82 58.2346 165.662 58.0766C165.504 57.9187 165.31 57.785 165.104 57.6999C164.885 57.6027 164.655 57.5541 164.412 57.5541H147.697V57.5419ZM147.697 55.4639H164.4H164.582H164.618C164.837 55.4396 165.043 55.3667 165.237 55.2573C165.431 55.1479 165.601 55.0143 165.747 54.8684C165.893 54.7105 166.002 54.5282 166.087 54.3337C166.172 54.1272 166.208 53.9206 166.208 53.6897C166.208 53.4709 166.16 53.2522 166.087 53.0456C166.002 52.839 165.893 52.6567 165.747 52.4988C165.601 52.3408 165.431 52.2192 165.237 52.1099C165.043 52.0127 164.837 51.9397 164.618 51.9154H164.387H147.685V55.4639H147.697Z" fill="#0F3D3E"/>
<path d="M184.44 51.9276L187.377 49.8374H190.958L188.02 51.9276L182.971 55.4761L181.502 56.4968L180.75 57.0559V63.1684H179.694H178.674V57.0559L177.909 56.4968L176.441 55.4761L171.403 51.9276L168.417 49.8374H172.034L174.96 51.9276L179.681 55.2452L184.44 51.9276Z" fill="#0F3D3E"/>
<path d="M194.381 61.0904V63.1684H192.305V57.5419V51.9154V49.8374H194.381H211.095C211.848 49.8374 212.527 50.0318 213.134 50.4086C213.741 50.7853 214.202 51.2957 214.518 51.9276C214.797 52.4623 214.931 53.0578 214.931 53.6897C214.931 54.3216 214.797 54.9171 214.518 55.4761C214.36 55.792 214.154 56.0715 213.923 56.3267C213.693 56.5819 213.426 56.8007 213.122 56.9829C212.831 57.1652 212.515 57.311 212.163 57.4083C211.823 57.5055 211.459 57.5541 211.083 57.5541H194.369V61.0904H194.381ZM211.095 55.4639C211.338 55.4639 211.568 55.4153 211.787 55.3181C212.005 55.2209 212.2 55.0993 212.357 54.9414C212.527 54.7834 212.649 54.5889 212.746 54.3702C212.843 54.1515 212.892 53.9206 212.892 53.6775C212.892 53.4345 212.843 53.2036 212.746 52.997C212.649 52.7783 212.515 52.596 212.357 52.438C212.188 52.28 212.005 52.1463 211.787 52.0613C211.568 51.964 211.338 51.9154 211.095 51.9154H194.381V55.4639H211.095Z" fill="#0F3D3E"/>
<path d="M219.058 52.0612C218.839 52.1584 218.657 52.2799 218.5 52.4379C218.342 52.5959 218.208 52.7903 218.123 52.9969C218.026 53.2156 217.978 53.4344 217.978 53.6774C217.978 53.9205 218.026 54.1513 218.123 54.3701C218.22 54.5888 218.342 54.7833 218.5 54.9412C218.657 55.0992 218.852 55.2329 219.058 55.318C219.276 55.4152 219.507 55.4638 219.75 55.4638H234.716C235.226 55.4638 235.699 55.561 236.149 55.7433C236.598 55.9256 236.986 56.1808 237.326 56.4846C237.472 56.6304 237.617 56.8005 237.751 56.9828C237.884 57.1651 238.006 57.3474 238.115 57.5418C238.394 58.0765 238.528 58.672 238.528 59.3039C238.528 59.9358 238.394 60.5313 238.115 61.0781C237.799 61.6979 237.326 62.2083 236.719 62.585C236.112 62.9617 235.432 63.1562 234.668 63.1562H217.966H215.89V61.0781H217.966H234.668C234.923 61.0781 235.153 61.0295 235.36 60.9323C235.578 60.8351 235.76 60.7136 235.918 60.5556C236.076 60.3976 236.209 60.2032 236.294 59.9844C236.391 59.7657 236.44 59.5348 236.44 59.2918C236.44 59.0487 236.391 58.8178 236.294 58.6112C236.197 58.3925 236.076 58.2102 235.918 58.0522C235.76 57.8942 235.578 57.7606 235.372 57.6755C235.165 57.5783 234.935 57.5297 234.692 57.5297H234.656H219.689C219.082 57.5297 218.5 57.3839 217.953 57.08C217.796 56.995 217.65 56.9099 217.516 56.8127C217.371 56.7155 217.249 56.6061 217.128 56.4724C216.958 56.3388 216.812 56.1808 216.679 55.9985C216.545 55.8162 216.436 55.6339 216.339 55.4516C216.181 55.1843 216.072 54.9048 215.999 54.6131C215.926 54.3215 215.89 54.0177 215.89 53.7139V53.6288C215.89 53.325 215.926 53.0212 215.999 52.7295C216.072 52.4379 216.193 52.1584 216.339 51.9032C216.509 51.5386 216.74 51.2227 217.019 50.9431C217.298 50.6758 217.614 50.4449 217.953 50.2626C218.512 49.9588 219.094 49.813 219.726 49.813H238.503V51.9032H236.452H219.75C219.507 51.9275 219.276 51.9639 219.058 52.0612Z" fill="#0F3D3E"/>
<path d="M101.985 69.6093C101.985 69.6093 96.9598 59.5594 96.9598 51.2594C96.9598 45.8638 98.0158 40.3588 98.7684 37.1749C99.2053 35.3156 98.7319 33.3713 97.4817 31.9251C94.2529 28.1944 87.4556 21.5957 79.8935 21.5957C69.3454 21.5957 70.6078 28.1336 70.6078 37.1749C70.6078 44.2232 68.168 49.4487 67.0877 51.4052C66.8207 51.8913 66.5051 52.3409 66.153 52.7541C64.5508 54.6256 59.0522 61.1999 59.0522 63.5575C59.0522 66.3282 59.8048 69.342 59.8048 69.342C59.8048 69.342 60.1568 73.972 58.7488 75.3695C57.9476 76.1715 57.2679 76.0622 56.8309 75.8191C56.4911 75.6368 56.2968 75.2723 56.309 74.8956C56.3454 73.8626 56.3697 71.4322 55.787 70.8489C55.2165 70.2777 54.5125 68.151 54.1969 67.1303C54.0877 66.7778 54.0634 66.4011 54.1362 66.0365L56.7945 51.7576C56.7945 51.7576 58.7973 26.3715 57.5228 23.7467C56.5639 21.7658 52.6311 29.2638 50.7618 33.0796C50.1064 34.4163 49.633 35.8382 49.3417 37.3086C48.322 42.6556 45.9915 56.2783 45.7366 58.5508C45.4332 61.2972 45.7366 67.0938 44.7291 67.0938C44.0009 67.0938 43.2604 66.0244 42.9206 65.4411C42.787 65.2224 42.6292 65.0036 42.4836 64.797C40.942 62.6218 40.6629 55.4884 40.6507 50.7976C40.6386 48.1241 40.9663 45.4628 41.5975 42.8743L43.1512 36.5551C43.6367 34.5622 44.4014 32.6421 45.3846 30.8314C46.6106 28.5954 47.9943 25.3751 46.7441 24.1112C44.7413 22.1061 35.9532 28.8871 30.4304 34.4163C24.9075 39.9456 31.1829 48.2456 31.1829 48.2456C31.1829 48.2456 56.9159 99.3945 59.1736 99.3945C60.8729 99.3945 60.1568 87.3273 59.6955 81.3241C59.562 79.5256 59.9504 77.727 60.8122 76.1472C61.8076 74.3001 61.759 72.4894 61.6012 71.2013C61.5284 70.5936 61.3585 69.9982 61.14 69.4149C60.5331 67.8108 60.4967 64.3838 60.9336 63.9464C61.3099 63.3144 68.9934 52.0979 70.28 50.1535C70.4378 49.9226 70.6199 49.716 70.8384 49.5459C71.7002 48.9018 72.3314 49.2543 72.7684 49.8133C73.3389 50.5546 73.3753 51.5754 72.9504 52.4139L70.2193 57.6879C70.1951 57.7365 70.2679 57.7852 70.2922 57.7365L73.3146 53.7628C73.8365 53.0822 74.7712 52.8149 75.5359 53.2038C76.2642 53.5683 76.5555 54.1759 76.6769 54.662C76.774 55.0631 76.7011 55.4762 76.4948 55.8286L73.4845 61.2121C73.4602 61.2607 73.5209 61.3093 73.5573 61.2607L76.1064 58.1619C76.6647 57.4814 77.6843 57.2991 78.3883 57.8459C78.6432 58.0404 78.801 58.2834 78.8981 58.5264C79.1045 59.049 78.9953 59.6445 78.6797 60.1062C77.8178 61.3336 75.5601 64.6026 76.4826 63.679C77.3202 62.8405 78.1456 62.4152 78.534 62.2572C78.7039 62.1843 78.9103 62.16 79.0802 62.2329C80.2455 62.7554 78.6918 66.2431 77.9878 66.948C77.5508 67.3854 76.5919 67.0573 75.8757 66.7049C75.0382 66.2917 74.0793 66.1581 73.1689 66.389C71.1297 66.9115 70.9962 68.3576 71.0812 69.1597C71.1176 69.4392 70.9234 69.7065 70.6442 69.7673C68.9084 70.1562 68.7992 72.38 68.872 73.5345C68.8963 73.8869 68.6657 74.2029 68.3379 74.3365C66.6993 75.0049 67.3911 78.4926 67.6218 79.4891C67.6582 79.6592 67.646 79.8294 67.5732 79.9874C67.3426 80.4734 66.8813 81.6158 66.8813 82.7702C66.8813 84.2893 70.2072 85.0184 72.2221 85.0184C74.2249 85.0184 75.4873 93.0632 75.4873 101.108C75.4873 109.153 77.2474 108.898 77.2474 108.898C77.2474 108.898 83.7777 110.404 88.7908 105.373C93.8038 100.342 84.0205 68.9288 84.0205 68.9288C84.0205 68.9288 76.4948 47.5651 82.2604 41.7806C85.8169 38.22 87.0793 39.4231 87.5405 40.8692C87.8197 41.7442 87.6255 42.692 87.1036 43.4455C86.5209 44.2961 85.7805 46.1919 85.7805 50.3237C85.7805 53.3739 86.3874 57.0439 87.055 60.1427C87.7226 63.2537 88.8393 66.231 90.2474 69.0746C94.253 77.2166 95.1633 98.7019 97.2025 98.7019C99.4602 98.7019 100.091 95.3114 104.231 91.1674C108.382 87.0843 101.985 69.6093 101.985 69.6093ZM75.0868 83.3171C74.6983 83.7059 71.2875 83.4264 70.4985 83.3414C70.3893 83.3292 70.2922 83.3292 70.1829 83.3171C67.7189 83.232 68.9084 81.2512 68.9084 81.2512C69.1148 80.6436 72.2707 81.0081 73.8608 81.2998C74.4677 81.4092 74.9896 81.8223 75.2081 82.3935C75.3538 82.7824 75.196 83.2199 75.0868 83.3171ZM76.2399 79.1732C75.3659 80.0481 73.0475 79.5742 71.5788 79.1488C70.8869 78.9544 70.1951 78.8086 69.4911 78.6628C67.5247 78.2739 68.7263 76.366 69.2119 75.8799C69.5396 75.5518 70.4014 75.8434 71.0569 76.1351C71.6516 76.4024 72.2828 76.5483 72.9262 76.5847L75.6087 76.6941C76.2035 76.7184 76.7133 77.1559 76.8104 77.7392C76.8711 78.1524 76.7618 78.6506 76.2399 79.1732ZM78.182 73.972C77.478 75.8556 75.1353 75.2237 72.7441 75.2237C70.3529 75.2237 70.4378 72.3193 70.4378 72.3193C70.4378 72.3193 70.6685 71.3835 71.6152 71.3835C71.943 71.3835 72.3557 71.4929 72.7562 71.6509C73.7394 72.0155 74.759 72.2828 75.8029 72.4043C78.7161 72.7446 78.182 73.972 78.182 73.972ZM75.6208 71.1527C75.6208 71.1527 72.5742 70.4478 72.5742 68.5642C72.5742 67.2275 74.2492 67.5556 75.2081 67.8594C75.6208 67.9931 76.0578 68.0781 76.4826 68.1267C78.5461 68.3698 79.1409 69.8159 79.1409 70.6787C79.1409 71.6266 75.6208 71.1527 75.6208 71.1527Z" fill="url(#paint0_linear_212_22)"/>
<path d="M103.599 41.3794C102.944 45.8029 100.65 65.0642 109.086 74.6037C109.389 74.944 109.936 74.7982 110.057 74.3729C111.21 70.0953 115.021 52.596 104.401 41.1364C104.133 40.8447 103.648 40.9906 103.599 41.3794Z" fill="url(#paint1_linear_212_22)"/>
<path d="M25.2352 48.5736C24.859 47.8444 23.8029 47.9903 23.5966 48.7802C22.407 53.2765 20.1372 59.8144 20.2586 73.3156C20.3678 85.4557 41.4761 107.573 43.4789 105.568C45.0933 103.951 43.4547 95.2991 42.7507 92.0058C42.605 91.301 43.042 90.6083 43.746 90.4503C44.3043 90.3288 44.8748 90.6447 45.0569 91.1794L48.4192 100.707C48.844 101.922 49.2082 103.162 49.4752 104.425C50.252 108.083 51.1624 110.878 54.0149 110.344C58.0326 109.59 52.7647 101.801 52.7647 101.801L25.2352 48.5736Z" fill="url(#paint2_linear_212_22)"/>
<defs>
<linearGradient id="paint0_linear_212_22" x1="55.1018" y1="29.5371" x2="84.2972" y2="75.2118" gradientUnits="userSpaceOnUse">
<stop stop-color="#15DCCC"/>
<stop offset="0.5213" stop-color="#099B9C"/>
<stop offset="1" stop-color="#1F4948"/>
</linearGradient>
<linearGradient id="paint1_linear_212_22" x1="79.2747" y1="24.1299" x2="119.716" y2="73.6567" gradientUnits="userSpaceOnUse">
<stop offset="0.0244089" stop-color="#15DCCC"/>
<stop offset="0.3758" stop-color="#099B9C"/>
<stop offset="0.8396" stop-color="#1F4948"/>
</linearGradient>
<linearGradient id="paint2_linear_212_22" x1="-36.5802" y1="-23.4855" x2="50.1476" y2="103.969" gradientUnits="userSpaceOnUse">
<stop offset="0.4608" stop-color="#15DCCC"/>
<stop offset="0.631" stop-color="#099B9C"/>
<stop offset="0.7486" stop-color="#0A9899"/>
<stop offset="0.8207" stop-color="#0C9091"/>
<stop offset="0.8806" stop-color="#108283"/>
<stop offset="0.9338" stop-color="#156E6E"/>
<stop offset="0.982" stop-color="#1C5554"/>
<stop offset="1" stop-color="#1F4948"/>
</linearGradient>
</defs>
</svg>
