<svg width="445" height="447" viewBox="0 0 445 447" fill="none" xmlns="http://www.w3.org/2000/svg">
<path d="M342.959 237.222V205.994L387.883 207.638C388.614 209.464 389.088 216.952 385.144 232.292C380.213 251.467 375.282 268.45 354.464 283.79C342.944 292.279 310.818 296.756 295.843 297.487C296.026 311.366 294.309 346.684 285.982 376.926C275.572 414.728 258.589 431.164 236.127 441.025C218.157 448.915 194.672 446.504 185.176 444.313V415.824C185.176 405.743 187.367 391.901 188.463 386.24L239.962 395.005C240.327 397.014 240.838 402.785 239.962 409.798C239.085 416.81 234.118 426.964 231.744 431.164C233.387 430.981 237.88 427.877 242.701 416.92C248.727 403.223 248.727 376.926 249.275 369.804C249.713 364.106 250.553 289.634 250.919 253.11C251.832 252.745 256.069 251.686 265.711 250.371C277.764 248.727 346.794 247.084 361.586 244.892C373.42 243.139 378.57 230.283 379.665 224.074C379.665 224.074 376.926 230.1 373.091 233.387C369.256 236.674 364.325 237.222 364.325 237.222H342.959Z" fill="white"/>
<path d="M101.306 209.234L101.306 240.462L56.382 238.819C55.6515 236.992 55.1767 229.505 59.1212 214.165C64.052 194.99 68.9827 178.006 89.8013 162.666C101.322 154.178 133.447 149.7 148.422 148.97C148.239 135.091 149.956 99.7723 158.284 69.5305C168.693 31.7283 185.676 15.2926 208.139 5.43113C226.108 -2.45802 249.593 -0.047454 259.089 2.14398L259.089 30.6326C259.089 40.7132 256.898 54.5557 255.802 60.2169L204.304 51.4512C203.938 49.4424 203.427 43.6716 204.304 36.659C205.18 29.6464 210.147 19.4928 212.521 15.2926C210.878 15.4752 206.385 18.5797 201.564 29.5369C195.538 43.2333 195.538 69.5305 194.99 76.6527C194.552 82.3504 193.712 156.823 193.346 193.346C192.433 193.712 188.197 194.771 178.554 196.086C166.501 197.729 97.4713 199.373 82.6791 201.564C70.8454 203.317 65.6955 216.174 64.5998 222.383C64.5998 222.383 67.3391 216.356 71.1741 213.069C75.0091 209.782 79.9398 209.234 79.9398 209.234L101.306 209.234Z" fill="white"/>
<path d="M235.031 103.492L203.803 103.492L205.447 58.568C207.273 57.8375 214.76 57.3627 230.1 61.3073C249.275 66.238 266.259 71.1687 281.599 91.9873C290.087 103.508 294.565 135.633 295.295 150.608C309.174 150.425 344.493 152.142 374.735 160.47C412.537 170.879 428.973 187.862 438.834 210.325C446.723 228.294 444.313 251.779 442.121 261.275L413.633 261.275C403.552 261.275 389.709 259.084 384.048 257.988L392.814 206.49C394.823 206.124 400.594 205.613 407.606 206.49C414.619 207.366 424.772 212.333 428.973 214.707C428.79 213.064 425.685 208.571 414.728 203.75C401.032 197.724 374.735 197.724 367.612 197.176C361.915 196.738 287.443 195.898 250.919 195.532C250.554 194.619 249.494 190.383 248.179 180.74C246.536 168.687 244.892 99.6573 242.701 84.8652C240.948 73.0314 228.091 67.8816 221.882 66.7859C221.882 66.7859 227.909 69.5251 231.196 73.3602C234.483 77.1952 235.031 82.1259 235.031 82.1259L235.031 103.492Z" fill="white"/>
<path d="M209.234 342.964L240.462 342.964L238.819 387.888C236.992 388.619 229.505 389.093 214.165 385.149C194.99 380.218 178.006 375.287 162.666 354.469C154.178 342.948 149.7 310.823 148.97 295.848C135.091 296.031 99.7723 294.314 69.5305 285.987C31.7283 275.577 15.2926 258.594 5.43113 236.131C-2.45802 218.162 -0.0474536 194.677 2.14398 185.181L30.6326 185.181C40.7132 185.181 54.5557 187.372 60.2169 188.468L51.4512 239.966C49.4424 240.332 43.6716 240.843 36.659 239.966C29.6464 239.09 19.4928 234.123 15.2926 231.749C15.4752 233.392 18.5797 237.885 29.5369 242.706C43.2333 248.732 69.5305 248.732 76.6527 249.28C82.3504 249.718 156.823 250.558 193.346 250.924C193.712 251.837 194.771 256.073 196.086 265.716C197.729 277.769 199.373 346.799 201.564 361.591C203.317 373.425 216.174 378.574 222.383 379.67C222.383 379.67 216.356 376.931 213.069 373.096C209.782 369.261 209.234 364.33 209.234 364.33L209.234 342.964Z" fill="white"/>
<path d="M332.002 73.9609C344.237 86.1964 369.037 110.887 370.352 111.763C359.212 127.468 331.783 153.51 311.183 132.034C290.584 110.558 316.479 84.3702 332.002 73.9609Z" fill="white"/>
<path d="M334.193 369.728C346.429 357.493 371.228 332.803 372.543 331.926C361.403 316.221 333.974 290.179 313.374 311.655C292.775 333.131 318.67 359.319 334.193 369.728Z" fill="white"/>
<path d="M108.476 73.9609C96.2404 86.1964 71.4407 110.887 70.1258 111.763C81.2656 127.468 108.695 153.51 129.294 132.034C149.894 110.558 123.999 84.3702 108.476 73.9609Z" fill="white"/>
<path d="M110.667 373.015C98.4318 360.78 73.6321 336.09 72.3172 335.213C83.457 319.508 110.886 293.466 131.486 314.942C152.085 336.418 126.19 362.606 110.667 373.015Z" fill="white"/>
</svg>
